<mxfile host="app.diagrams.net" agent="Mozilla/5.0 (X11; Linux x86_64; rv:135.0) Gecko/20100101 Firefox/135.0" version="26.2.14">
  <diagram name="Page-1" id="Pq80wyoyBBsbovgBwrqJ">
    <mxGraphModel grid="1" page="1" gridSize="10" guides="1" tooltips="1" connect="1" arrows="1" fold="1" pageScale="1" pageWidth="827" pageHeight="1169" math="0" shadow="0">
      <root>
        <mxCell id="0" />
        <mxCell id="1" parent="0" />
        <mxCell id="KpRY53SQxvxNBW13Ttrt-1" value="&lt;div align=&quot;justify&quot;&gt;&lt;u&gt;&lt;b&gt;ParkingEvent&lt;/b&gt;&lt;/u&gt;&lt;/div&gt;&lt;div align=&quot;justify&quot;&gt;&lt;br&gt;&lt;div&gt;&lt;div&gt;&lt;u&gt;leaving: &lt;/u&gt;boolean&lt;/div&gt;&lt;div&gt;&lt;u&gt;date: &lt;/u&gt;timestamp&lt;/div&gt;&lt;div&gt;&lt;u&gt;plate: &lt;/u&gt;text&lt;/div&gt;&lt;div&gt;&lt;u&gt;latitude: &lt;/u&gt;int&lt;/div&gt;&lt;div&gt;&lt;u&gt;longetude: &lt;/u&gt;int&lt;/div&gt;&lt;div&gt;&lt;u&gt;IOT_id: &lt;/u&gt;int&lt;/div&gt;&lt;div&gt;&lt;u&gt;parkingRef: &lt;/u&gt;int&lt;/div&gt;&lt;/div&gt;&lt;/div&gt;&lt;div align=&quot;justify&quot;&gt;&lt;u&gt;priorityPlace: &lt;/u&gt;int&lt;/div&gt;" style="rounded=0;whiteSpace=wrap;html=1;fillColor=#a0522d;strokeColor=#6D1F00;fontColor=#ffffff;" vertex="1" parent="1">
          <mxGeometry x="58.5" y="-480" width="160" height="160" as="geometry" />
        </mxCell>
        <mxCell id="TgCnZQZNsUL1pHp7SL2V-54" value="" style="edgeStyle=orthogonalEdgeStyle;rounded=0;orthogonalLoop=1;jettySize=auto;html=1;" edge="1" parent="1" source="TgCnZQZNsUL1pHp7SL2V-4" target="TgCnZQZNsUL1pHp7SL2V-53">
          <mxGeometry relative="1" as="geometry" />
        </mxCell>
        <mxCell id="TgCnZQZNsUL1pHp7SL2V-56" value="UserModel" style="edgeLabel;html=1;align=center;verticalAlign=middle;resizable=0;points=[];" vertex="1" connectable="0" parent="TgCnZQZNsUL1pHp7SL2V-54">
          <mxGeometry x="0.2286" y="4" relative="1" as="geometry">
            <mxPoint x="4" y="13" as="offset" />
          </mxGeometry>
        </mxCell>
        <mxCell id="TgCnZQZNsUL1pHp7SL2V-4" value="repo-account" style="rounded=0;whiteSpace=wrap;html=1;fillColor=#ffe6cc;strokeColor=#d79b00;" vertex="1" parent="1">
          <mxGeometry x="453" y="50" width="120" height="60" as="geometry" />
        </mxCell>
        <mxCell id="TgCnZQZNsUL1pHp7SL2V-46" style="edgeStyle=orthogonalEdgeStyle;rounded=0;orthogonalLoop=1;jettySize=auto;html=1;entryX=0.608;entryY=0;entryDx=0;entryDy=0;exitX=0.608;exitY=1.05;exitDx=0;exitDy=0;exitPerimeter=0;entryPerimeter=0;" edge="1" parent="1" source="TgCnZQZNsUL1pHp7SL2V-5" target="TgCnZQZNsUL1pHp7SL2V-45">
          <mxGeometry relative="1" as="geometry" />
        </mxCell>
        <mxCell id="TgCnZQZNsUL1pHp7SL2V-59" value="ParkingModel" style="edgeLabel;html=1;align=center;verticalAlign=middle;resizable=0;points=[];" vertex="1" connectable="0" parent="TgCnZQZNsUL1pHp7SL2V-46">
          <mxGeometry x="-0.1429" relative="1" as="geometry">
            <mxPoint x="64" y="4" as="offset" />
          </mxGeometry>
        </mxCell>
        <mxCell id="TgCnZQZNsUL1pHp7SL2V-5" value="srvc-event" style="rounded=0;whiteSpace=wrap;html=1;fillColor=#ffe6cc;strokeColor=#d79b00;" vertex="1" parent="1">
          <mxGeometry x="453" y="220" width="120" height="60" as="geometry" />
        </mxCell>
        <mxCell id="TgCnZQZNsUL1pHp7SL2V-11" style="edgeStyle=orthogonalEdgeStyle;rounded=0;orthogonalLoop=1;jettySize=auto;html=1;entryX=0;entryY=0.5;entryDx=0;entryDy=0;exitX=0.5;exitY=0.5;exitDx=0;exitDy=0;exitPerimeter=0;" edge="1" parent="1" source="TgCnZQZNsUL1pHp7SL2V-17" target="TgCnZQZNsUL1pHp7SL2V-4">
          <mxGeometry relative="1" as="geometry">
            <mxPoint x="149" y="180" as="sourcePoint" />
            <Array as="points">
              <mxPoint x="300" y="80" />
              <mxPoint x="300" y="80" />
            </Array>
          </mxGeometry>
        </mxCell>
        <mxCell id="TgCnZQZNsUL1pHp7SL2V-12" value="/account&lt;br&gt;/tmp" style="edgeLabel;html=1;align=center;verticalAlign=middle;resizable=0;points=[];" vertex="1" connectable="0" parent="TgCnZQZNsUL1pHp7SL2V-11">
          <mxGeometry x="0.4188" relative="1" as="geometry">
            <mxPoint x="-33" as="offset" />
          </mxGeometry>
        </mxCell>
        <mxCell id="TgCnZQZNsUL1pHp7SL2V-49" style="edgeStyle=orthogonalEdgeStyle;rounded=0;orthogonalLoop=1;jettySize=auto;html=1;entryX=0;entryY=0.5;entryDx=0;entryDy=0;" edge="1" parent="1" source="TgCnZQZNsUL1pHp7SL2V-16" target="TgCnZQZNsUL1pHp7SL2V-45">
          <mxGeometry relative="1" as="geometry" />
        </mxCell>
        <mxCell id="TgCnZQZNsUL1pHp7SL2V-57" value="ParkingEvent" style="edgeLabel;html=1;align=center;verticalAlign=middle;resizable=0;points=[];" vertex="1" connectable="0" parent="TgCnZQZNsUL1pHp7SL2V-49">
          <mxGeometry x="0.0361" y="-2" relative="1" as="geometry">
            <mxPoint y="-12" as="offset" />
          </mxGeometry>
        </mxCell>
        <mxCell id="TgCnZQZNsUL1pHp7SL2V-16" value="" style="fillColor=#28A8E0;verticalLabelPosition=bottom;sketch=0;html=1;strokeColor=#ffffff;verticalAlign=top;align=center;points=[[0.145,0.145,0],[0.5,0,0],[0.855,0.145,0],[1,0.5,0],[0.855,0.855,0],[0.5,1,0],[0.145,0.855,0],[0,0.5,0]];pointerEvents=1;shape=mxgraph.cisco_safe.compositeIcon;bgIcon=ellipse;resIcon=mxgraph.cisco_safe.capability.intrusion_detection;" vertex="1" parent="1">
          <mxGeometry x="110" y="373.5" width="30" height="33" as="geometry" />
        </mxCell>
        <mxCell id="KpRY53SQxvxNBW13Ttrt-3" value="&lt;div&gt;/account/{id}&lt;/div&gt;" style="text;html=1;align=center;verticalAlign=middle;resizable=0;points=[];autosize=1;strokeColor=none;fillColor=none;" vertex="1" parent="1">
          <mxGeometry x="463" y="160" width="110" height="30" as="geometry" />
        </mxCell>
        <mxCell id="TgCnZQZNsUL1pHp7SL2V-17" value="Client" style="shape=umlActor;verticalLabelPosition=bottom;verticalAlign=top;html=1;outlineConnect=0;" vertex="1" parent="1">
          <mxGeometry x="40" y="50" width="30" height="60" as="geometry" />
        </mxCell>
        <mxCell id="KpRY53SQxvxNBW13Ttrt-2" value="" style="endArrow=classic;html=1;rounded=0;exitX=0.5;exitY=0;exitDx=0;exitDy=0;entryX=0.5;entryY=1;entryDx=0;entryDy=0;" edge="1" parent="1" source="TgCnZQZNsUL1pHp7SL2V-5" target="TgCnZQZNsUL1pHp7SL2V-4">
          <mxGeometry width="50" height="50" relative="1" as="geometry">
            <mxPoint x="503" y="151" as="sourcePoint" />
            <mxPoint x="553" y="101" as="targetPoint" />
          </mxGeometry>
        </mxCell>
        <mxCell id="TgCnZQZNsUL1pHp7SL2V-18" style="edgeStyle=orthogonalEdgeStyle;rounded=0;orthogonalLoop=1;jettySize=auto;html=1;entryX=0.5;entryY=0;entryDx=0;entryDy=0;entryPerimeter=0;" edge="1" parent="1" source="TgCnZQZNsUL1pHp7SL2V-17" target="TgCnZQZNsUL1pHp7SL2V-16">
          <mxGeometry relative="1" as="geometry" />
        </mxCell>
        <mxCell id="TgCnZQZNsUL1pHp7SL2V-20" value="Park" style="edgeLabel;html=1;align=center;verticalAlign=middle;resizable=0;points=[];" vertex="1" connectable="0" parent="TgCnZQZNsUL1pHp7SL2V-18">
          <mxGeometry x="0.006" relative="1" as="geometry">
            <mxPoint as="offset" />
          </mxGeometry>
        </mxCell>
        <mxCell id="TgCnZQZNsUL1pHp7SL2V-36" style="edgeStyle=orthogonalEdgeStyle;rounded=0;orthogonalLoop=1;jettySize=auto;html=1;entryX=0.5;entryY=1;entryDx=0;entryDy=0;" edge="1" parent="1" source="TgCnZQZNsUL1pHp7SL2V-32" target="TgCnZQZNsUL1pHp7SL2V-35">
          <mxGeometry relative="1" as="geometry" />
        </mxCell>
        <mxCell id="TgCnZQZNsUL1pHp7SL2V-32" value="srvc-stats (pyspark)" style="rounded=0;whiteSpace=wrap;html=1;fillColor=#ffe6cc;strokeColor=#d79b00;" vertex="1" parent="1">
          <mxGeometry x="683" y="50" width="120" height="60" as="geometry" />
        </mxCell>
        <mxCell id="KpRY53SQxvxNBW13Ttrt-5" style="edgeStyle=orthogonalEdgeStyle;rounded=0;orthogonalLoop=1;jettySize=auto;html=1;exitX=0.5;exitY=0;exitDx=0;exitDy=0;entryX=0.5;entryY=1;entryDx=0;entryDy=0;" edge="1" parent="1" source="TgCnZQZNsUL1pHp7SL2V-35" target="TgCnZQZNsUL1pHp7SL2V-38">
          <mxGeometry relative="1" as="geometry" />
        </mxCell>
        <mxCell id="TgCnZQZNsUL1pHp7SL2V-79" value="DailyParkingReport&lt;br&gt;UserDailyParkingReport&lt;div&gt;MonthlyReport&lt;/div&gt;" style="edgeLabel;html=1;align=center;verticalAlign=middle;resizable=0;points=[];" vertex="1" connectable="0" parent="KpRY53SQxvxNBW13Ttrt-5">
          <mxGeometry x="-0.0952" y="-1" relative="1" as="geometry">
            <mxPoint x="-1" y="-8" as="offset" />
          </mxGeometry>
        </mxCell>
        <mxCell id="TgCnZQZNsUL1pHp7SL2V-55" style="edgeStyle=orthogonalEdgeStyle;rounded=0;orthogonalLoop=1;jettySize=auto;html=1;" edge="1" parent="1" source="TgCnZQZNsUL1pHp7SL2V-35" target="TgCnZQZNsUL1pHp7SL2V-53">
          <mxGeometry relative="1" as="geometry" />
        </mxCell>
        <mxCell id="TgCnZQZNsUL1pHp7SL2V-73" value="load users" style="edgeLabel;html=1;align=center;verticalAlign=middle;resizable=0;points=[];" vertex="1" connectable="0" parent="TgCnZQZNsUL1pHp7SL2V-55">
          <mxGeometry x="-0.0303" y="3" relative="1" as="geometry">
            <mxPoint y="-13" as="offset" />
          </mxGeometry>
        </mxCell>
        <mxCell id="TgCnZQZNsUL1pHp7SL2V-72" style="edgeStyle=orthogonalEdgeStyle;rounded=0;orthogonalLoop=1;jettySize=auto;html=1;entryX=0;entryY=0.5;entryDx=0;entryDy=0;" edge="1" parent="1" source="TgCnZQZNsUL1pHp7SL2V-35" target="TgCnZQZNsUL1pHp7SL2V-64">
          <mxGeometry relative="1" as="geometry" />
        </mxCell>
        <mxCell id="TgCnZQZNsUL1pHp7SL2V-75" value="load events" style="edgeLabel;html=1;align=center;verticalAlign=middle;resizable=0;points=[];" vertex="1" connectable="0" parent="TgCnZQZNsUL1pHp7SL2V-72">
          <mxGeometry x="-0.1294" y="-2" relative="1" as="geometry">
            <mxPoint x="5" y="-12" as="offset" />
          </mxGeometry>
        </mxCell>
        <mxCell id="TgCnZQZNsUL1pHp7SL2V-35" value="Spark" style="rounded=0;whiteSpace=wrap;html=1;fillColor=#dae8fc;strokeColor=#6c8ebf;" vertex="1" parent="1">
          <mxGeometry x="683" y="-80" width="120" height="60" as="geometry" />
        </mxCell>
        <mxCell id="TgCnZQZNsUL1pHp7SL2V-38" value="Relational DB / Column Based" style="rounded=0;whiteSpace=wrap;html=1;fillColor=#dae8fc;strokeColor=#6c8ebf;" vertex="1" parent="1">
          <mxGeometry x="683" y="-230" width="120" height="60" as="geometry" />
        </mxCell>
        <mxCell id="TgCnZQZNsUL1pHp7SL2V-86" style="edgeStyle=orthogonalEdgeStyle;rounded=0;orthogonalLoop=1;jettySize=auto;html=1;entryX=0.5;entryY=0;entryDx=0;entryDy=0;" edge="1" parent="1" source="TgCnZQZNsUL1pHp7SL2V-40" target="TgCnZQZNsUL1pHp7SL2V-85">
          <mxGeometry relative="1" as="geometry" />
        </mxCell>
        <mxCell id="TgCnZQZNsUL1pHp7SL2V-40" value="Data Analyst" style="shape=umlActor;verticalLabelPosition=bottom;verticalAlign=top;html=1;outlineConnect=0;" vertex="1" parent="1">
          <mxGeometry x="880" y="-400" width="30" height="60" as="geometry" />
        </mxCell>
        <mxCell id="TgCnZQZNsUL1pHp7SL2V-68" value="&lt;div align=&quot;justify&quot;&gt;&lt;u&gt;&lt;b&gt;ParkingModel&lt;/b&gt;&lt;/u&gt;&lt;/div&gt;&lt;div align=&quot;justify&quot;&gt;&lt;br&gt;&lt;div&gt;&lt;div&gt;&lt;u&gt;leaving: &lt;/u&gt;boolean&lt;/div&gt;&lt;div&gt;&lt;u&gt;date: &lt;/u&gt;timestamp&lt;/div&gt;&lt;div&gt;&lt;u&gt;plate: &lt;/u&gt;text&lt;/div&gt;&lt;div&gt;&lt;u&gt;latitude: &lt;/u&gt;int&lt;/div&gt;&lt;div&gt;&lt;u&gt;longetude:&lt;/u&gt; int&lt;/div&gt;&lt;div&gt;&lt;u&gt;IOT_id: &lt;/u&gt;int&lt;/div&gt;&lt;div&gt;&lt;u&gt;parkingRef: &lt;/u&gt;int&lt;/div&gt;&lt;/div&gt;&lt;/div&gt;&lt;div align=&quot;justify&quot;&gt;&lt;u&gt;priorityPlace: &lt;/u&gt;boolean&lt;/div&gt;" style="rounded=0;whiteSpace=wrap;html=1;fillColor=#dae8fc;strokeColor=#6c8ebf;" vertex="1" parent="1">
          <mxGeometry x="58.5" y="-310" width="160" height="160" as="geometry" />
        </mxCell>
        <mxCell id="TgCnZQZNsUL1pHp7SL2V-50" style="edgeStyle=orthogonalEdgeStyle;rounded=0;orthogonalLoop=1;jettySize=auto;html=1;entryX=0.35;entryY=1.017;entryDx=0;entryDy=0;entryPerimeter=0;exitX=0.35;exitY=-0.033;exitDx=0;exitDy=0;exitPerimeter=0;" edge="1" parent="1" source="TgCnZQZNsUL1pHp7SL2V-45" target="TgCnZQZNsUL1pHp7SL2V-5">
          <mxGeometry relative="1" as="geometry" />
        </mxCell>
        <mxCell id="TgCnZQZNsUL1pHp7SL2V-58" value="ParkingEvent" style="edgeLabel;html=1;align=center;verticalAlign=middle;resizable=0;points=[];" vertex="1" connectable="0" parent="TgCnZQZNsUL1pHp7SL2V-50">
          <mxGeometry x="0.0655" y="4" relative="1" as="geometry">
            <mxPoint x="-77" y="3" as="offset" />
          </mxGeometry>
        </mxCell>
        <mxCell id="TgCnZQZNsUL1pHp7SL2V-53" value="Relational DB" style="whiteSpace=wrap;html=1;fillColor=#dae8fc;strokeColor=#6c8ebf;rounded=0;" vertex="1" parent="1">
          <mxGeometry x="453" y="-80" width="120" height="60" as="geometry" />
        </mxCell>
        <mxCell id="TgCnZQZNsUL1pHp7SL2V-70" style="edgeStyle=orthogonalEdgeStyle;rounded=0;orthogonalLoop=1;jettySize=auto;html=1;" edge="1" parent="1" source="TgCnZQZNsUL1pHp7SL2V-45" target="TgCnZQZNsUL1pHp7SL2V-64">
          <mxGeometry relative="1" as="geometry" />
        </mxCell>
        <mxCell id="TgCnZQZNsUL1pHp7SL2V-71" value="ParkingModel&lt;br&gt;One Month Retention" style="edgeLabel;html=1;align=center;verticalAlign=middle;resizable=0;points=[];" vertex="1" connectable="0" parent="TgCnZQZNsUL1pHp7SL2V-70">
          <mxGeometry x="0.4676" y="-1" relative="1" as="geometry">
            <mxPoint as="offset" />
          </mxGeometry>
        </mxCell>
        <mxCell id="TgCnZQZNsUL1pHp7SL2V-45" value="Kafka" style="rounded=0;whiteSpace=wrap;html=1;fillColor=#d5e8d4;strokeColor=#82b366;" vertex="1" parent="1">
          <mxGeometry x="453" y="360" width="120" height="60" as="geometry" />
        </mxCell>
        <mxCell id="TgCnZQZNsUL1pHp7SL2V-64" value="Time Series / Column Based" style="rounded=0;whiteSpace=wrap;html=1;fillColor=#dae8fc;strokeColor=#6c8ebf;" vertex="1" parent="1">
          <mxGeometry x="900" y="-80" width="120" height="60" as="geometry" />
        </mxCell>
        <mxCell id="TgCnZQZNsUL1pHp7SL2V-69" value="&lt;u&gt;&lt;b&gt;UserModel&lt;/b&gt;&lt;/u&gt;&lt;div&gt;&lt;br&gt;&lt;div&gt;&lt;div&gt;&lt;u style=&quot;background-color: transparent; color: light-dark(rgb(0, 0, 0), rgb(255, 255, 255));&quot;&gt;id :&lt;/u&gt;&lt;span style=&quot;background-color: transparent; color: light-dark(rgb(0, 0, 0), rgb(255, 255, 255));&quot;&gt;&amp;nbsp;&lt;/span&gt;Integer&lt;/div&gt;&lt;div&gt;&lt;u&gt;name :&lt;/u&gt;&amp;nbsp;&lt;span style=&quot;background-color: transparent; color: light-dark(rgb(0, 0, 0), rgb(255, 255, 255));&quot;&gt;Text&lt;/span&gt;&lt;/div&gt;&lt;div&gt;&lt;u&gt;surname :&lt;/u&gt;&amp;nbsp;&lt;span style=&quot;background-color: transparent; color: light-dark(rgb(0, 0, 0), rgb(255, 255, 255));&quot;&gt;Text&lt;/span&gt;&lt;/div&gt;&lt;div&gt;&lt;u&gt;birth :&lt;/u&gt;&amp;nbsp;&lt;span style=&quot;background-color: transparent; color: light-dark(rgb(0, 0, 0), rgb(255, 255, 255));&quot;&gt;date&lt;/span&gt;&lt;/div&gt;&lt;div&gt;&lt;span style=&quot;background-color: transparent; color: light-dark(rgb(0, 0, 0), rgb(255, 255, 255));&quot;&gt;&lt;u style=&quot;&quot;&gt;priorityMember :&lt;/u&gt;&amp;nbsp;&lt;/span&gt;&lt;span style=&quot;background-color: transparent; color: light-dark(rgb(0, 0, 0), rgb(255, 255, 255));&quot;&gt;Text&lt;/span&gt;&lt;/div&gt;&lt;/div&gt;&lt;/div&gt;&lt;div&gt;&lt;span style=&quot;background-color: transparent; color: light-dark(rgb(0, 0, 0), rgb(255, 255, 255));&quot;&gt;&lt;u&gt;priorityValidity creation:&lt;/u&gt;&amp;nbsp;&lt;/span&gt;&lt;span style=&quot;background-color: transparent; color: light-dark(rgb(0, 0, 0), rgb(255, 255, 255));&quot;&gt;&amp;nbsp;&lt;/span&gt;&lt;span style=&quot;background-color: transparent; color: light-dark(rgb(0, 0, 0), rgb(255, 255, 255));&quot;&gt;datetime&lt;/span&gt;&lt;/div&gt;" style="rounded=0;whiteSpace=wrap;html=1;fillColor=#fff2cc;strokeColor=#d6b656;" vertex="1" parent="1">
          <mxGeometry x="228.5" y="-480" width="160" height="160" as="geometry" />
        </mxCell>
        <mxCell id="TgCnZQZNsUL1pHp7SL2V-77" value="&lt;div align=&quot;justify&quot;&gt;&lt;u&gt;&lt;b&gt;DailyParkingReport&lt;/b&gt;&lt;/u&gt;&lt;/div&gt;&lt;div align=&quot;justify&quot;&gt;&lt;br&gt;&lt;div&gt;&lt;div&gt;&lt;u style=&quot;background-color: transparent; color: light-dark(rgb(0, 0, 0), rgb(255, 255, 255));&quot;&gt;entries :&lt;/u&gt;&lt;span style=&quot;background-color: transparent; color: light-dark(rgb(0, 0, 0), rgb(255, 255, 255));&quot;&gt; int&lt;/span&gt;&lt;/div&gt;&lt;div&gt;&lt;span style=&quot;background-color: transparent; color: light-dark(rgb(0, 0, 0), rgb(255, 255, 255));&quot;&gt;&lt;u&gt;exits: &lt;/u&gt;int&lt;/span&gt;&lt;/div&gt;&lt;div&gt;&lt;span style=&quot;background-color: transparent; color: light-dark(rgb(0, 0, 0), rgb(255, 255, 255));&quot;&gt;&lt;u&gt;peak_occupancy: &lt;/u&gt;date&lt;/span&gt;&lt;/div&gt;&lt;div&gt;&lt;span style=&quot;background-color: transparent; color: light-dark(rgb(0, 0, 0), rgb(255, 255, 255));&quot;&gt;&lt;u&gt;peak_entries:&lt;/u&gt; date&lt;/span&gt;&lt;/div&gt;&lt;div&gt;&lt;u&gt;parking_id :&lt;/u&gt; uuid&lt;/div&gt;&lt;/div&gt;&lt;/div&gt;&lt;div align=&quot;justify&quot;&gt;&lt;u&gt;date&lt;/u&gt;: timestamp&lt;/div&gt;" style="rounded=0;whiteSpace=wrap;html=1;fillColor=#fff2cc;strokeColor=#d6b656;" vertex="1" parent="1">
          <mxGeometry x="228.5" y="-310" width="160" height="160" as="geometry" />
        </mxCell>
        <mxCell id="TgCnZQZNsUL1pHp7SL2V-81" value="&lt;u&gt;&lt;b&gt;UserBehaviorSummary&lt;/b&gt;&lt;/u&gt;&lt;div&gt;&lt;br&gt;&lt;div&gt;&lt;div&gt;&lt;br&gt;&lt;/div&gt;&lt;/div&gt;&lt;/div&gt;&lt;div&gt;&lt;u&gt;avg_time&lt;/u&gt;: delta&lt;/div&gt;&lt;div&gt;&lt;u&gt;prefered_parking&lt;/u&gt;: uuid&lt;/div&gt;&lt;div&gt;&lt;u&gt;prefered_day&lt;/u&gt;: int&lt;/div&gt;&lt;div&gt;&lt;u&gt;total_sessions&lt;/u&gt;: int&lt;/div&gt;&lt;div&gt;&lt;u&gt;weekend_ratio: &lt;/u&gt;float&lt;/div&gt;" style="rounded=0;whiteSpace=wrap;html=1;fillColor=#fff2cc;strokeColor=#d6b656;" vertex="1" parent="1">
          <mxGeometry x="401.5" y="-480" width="160" height="160" as="geometry" />
        </mxCell>
        <mxCell id="TgCnZQZNsUL1pHp7SL2V-82" value="&lt;div align=&quot;justify&quot;&gt;&lt;u&gt;&lt;b&gt;MonthlyReport&lt;/b&gt;&lt;/u&gt;&lt;/div&gt;&lt;div align=&quot;justify&quot;&gt;&lt;br&gt;&lt;div&gt;&lt;div&gt;&lt;u style=&quot;background-color: transparent; color: light-dark(rgb(0, 0, 0), rgb(255, 255, 255));&quot;&gt;entries :&lt;/u&gt;&lt;span style=&quot;background-color: transparent; color: light-dark(rgb(0, 0, 0), rgb(255, 255, 255));&quot;&gt; int&lt;/span&gt;&lt;/div&gt;&lt;div&gt;&lt;span style=&quot;background-color: transparent; color: light-dark(rgb(0, 0, 0), rgb(255, 255, 255));&quot;&gt;&lt;u&gt;exits: &lt;/u&gt;int&lt;/span&gt;&lt;/div&gt;&lt;u&gt;year: &lt;/u&gt;int&lt;/div&gt;&lt;div&gt;&lt;u&gt;month&lt;/u&gt;: int&lt;/div&gt;&lt;/div&gt;" style="rounded=0;whiteSpace=wrap;html=1;fillColor=#fff2cc;strokeColor=#d6b656;" vertex="1" parent="1">
          <mxGeometry x="401.5" y="-310" width="160" height="160" as="geometry" />
        </mxCell>
        <mxCell id="TgCnZQZNsUL1pHp7SL2V-84" value="IOT" style="edgeLabel;html=1;align=center;verticalAlign=middle;resizable=0;points=[];" connectable="0" vertex="1" parent="1">
          <mxGeometry x="125" y="420" as="geometry" />
        </mxCell>
        <mxCell id="TgCnZQZNsUL1pHp7SL2V-87" style="edgeStyle=orthogonalEdgeStyle;rounded=0;orthogonalLoop=1;jettySize=auto;html=1;entryX=0.5;entryY=0;entryDx=0;entryDy=0;" edge="1" parent="1" source="TgCnZQZNsUL1pHp7SL2V-85" target="TgCnZQZNsUL1pHp7SL2V-38">
          <mxGeometry relative="1" as="geometry" />
        </mxCell>
        <mxCell id="TgCnZQZNsUL1pHp7SL2V-88" value="scrap" style="edgeLabel;html=1;align=center;verticalAlign=middle;resizable=0;points=[];" connectable="0" vertex="1" parent="TgCnZQZNsUL1pHp7SL2V-87">
          <mxGeometry x="-0.3333" y="-2" relative="1" as="geometry">
            <mxPoint x="2" y="6" as="offset" />
          </mxGeometry>
        </mxCell>
        <mxCell id="TgCnZQZNsUL1pHp7SL2V-85" value="Tableau / Power BI" style="rounded=0;whiteSpace=wrap;html=1;fillColor=#f5f5f5;strokeColor=#666666;fontColor=#333333;" vertex="1" parent="1">
          <mxGeometry x="683" y="-340" width="120" height="60" as="geometry" />
        </mxCell>
      </root>
    </mxGraphModel>
  </diagram>
</mxfile>
